<?xml version="1.0" standalone="no"?>
<!DOCTYPE svg PUBLIC "-//W3C//DTD SVG 1.1//EN" "http://www.w3.org/Graphics/SVG/1.1/DTD/svg11.dtd" >
<svg xmlns="http://www.w3.org/2000/svg" xmlns:xlink="http://www.w3.org/1999/xlink" version="1.1">
<metadata>
Created by FontForge 20190801 at Sun Oct 23 04:08:38 2022
 By root
BradHarding
</metadata>
<defs>
<font id="retro" horiz-adv-x="448" >
  <font-face 
    font-family="retro"
    font-weight="500"
    font-stretch="normal"
    units-per-em="1024"
    panose-1="2 0 6 3 0 0 0 0 0 0"
    ascent="768"
    descent="-256"
    x-height="512"
    cap-height="640"
    bbox="-128 -192 896 768"
    underline-thickness="51"
    underline-position="-153"
    unicode-range="U+0020-3000"
  />
<missing-glyph horiz-adv-x="374" 
d="M34 0v682h272v-682h-272zM68 34h204v614h-204v-614z" />
    <glyph glyph-name=".notdef" horiz-adv-x="374" 
d="M34 0v682h272v-682h-272zM68 34h204v614h-204v-614z" />
    <glyph glyph-name=".null" horiz-adv-x="0" 
 />
    <glyph glyph-name="nonmarkingreturn" horiz-adv-x="341" 
 />
    <glyph glyph-name="space" unicode=" " horiz-adv-x="320" 
 />
    <glyph glyph-name="exclam" unicode="!" horiz-adv-x="192" 
d="M64 0h-64v64v64h64h64v-64v-64h-64zM64 192h-64v64v64v64v64v64v64v64h64h64v-64v-64v-64v-64v-64v-64v-64h-64z" />
    <glyph glyph-name="quotedbl" unicode="&#x22;" horiz-adv-x="384" 
d="M256 448h-64v64v64v64h64h64v-64v-64v-64h-64zM64 448h-64v64v64v64h64h64v-64v-64v-64h-64z" />
    <glyph glyph-name="numbersign" unicode="#" horiz-adv-x="512" 
d="M320 0h-64v64v64h-64v-64v-64h-64h-64v64v64h-64v64v64h64v64v64h-64v64v64h64v64v64h64h64v-64v-64h64v64v64h64h64v-64v-64h64v-64v-64h-64v-64v-64h64v-64v-64h-64v-64v-64h-64zM256 256v64v64h-64v-64v-64h64z" />
    <glyph glyph-name="dollar" unicode="$" 
d="M192 0h-64v64h-64h-64v64v64h64h64h64h64v64h-64h-64h-64v64h-64v64v64v64h64v64h64v64h64h64v-64h64h64v-64v-64h-64h-64h-64h-64v-64h64h64h64v-64h64v-64v-64v-64h-64v-64h-64v-64h-64z" />
    <glyph glyph-name="percent" unicode="%" 
d="M320 0h-64v64v64v64h64h64v-64v-64v-64h-64zM64 0h-64v64v64h64v64v64h64v64v64h64v64v64h64v64v64h64h64v-64v-64h-64v-64v-64h-64v-64v-64h-64v-64v-64h-64v-64v-64h-64zM64 448h-64v64v64v64h64h64v-64v-64v-64h-64z" />
    <glyph glyph-name="ampersand" unicode="&#x26;" horiz-adv-x="512" 
d="M384 0h-64v64h-64v-64h-64h-64h-64v64h-64v64v64v64v64h64v64h-64v64v64v64h64v64h64h64h64v-64h64v-64v-64v-64h-64v-64h64v64h64h64v-64v-64h-64v-64v-64h64v-64v-64h-64zM192 128v64h64v64h-64h-64v-64v-64h64zM192 384v64v64h-64v-64v-64h64z" />
    <glyph glyph-name="quotesingle" unicode="'" horiz-adv-x="192" 
d="M64 448h-64v64v64v64h64h64v-64v-64v-64h-64z" />
    <glyph glyph-name="parenleft" unicode="(" horiz-adv-x="320" 
d="M192 -64h-64v64h-64v64v64h-64v64v64v64v64v64v64h64v64v64h64v64h64h64v-64v-64h-64v-64v-64h-64v-64v-64v-64v-64h64v-64v-64h64v-64v-64h-64z" />
    <glyph glyph-name="parenright" unicode=")" horiz-adv-x="320" 
d="M64 -64h-64v64v64h64v64v64h64v64v64v64v64h-64v64v64h-64v64v64h64h64v-64h64v-64v-64h64v-64v-64v-64v-64v-64v-64h-64v-64v-64h-64v-64h-64z" />
    <glyph glyph-name="asterisk" unicode="*" horiz-adv-x="576" 
d="M256 0h-64v64v64h-64v-64h-64h-64v64v64h64v64h64v64h-64v64h-64v64v64h64h64v-64h64v64v64h64h64v-64v-64h64v64h64h64v-64v-64h-64v-64h-64v-64h64v-64h64v-64v-64h-64h-64v64h-64v-64v-64h-64z" />
    <glyph glyph-name="plus" unicode="+" 
d="M192 128h-64v64v64h-64h-64v64v64h64h64v64v64h64h64v-64v-64h64h64v-64v-64h-64h-64v-64v-64h-64z" />
    <glyph glyph-name="comma" unicode="," horiz-adv-x="192" 
d="M0 -64h-64v64h64v64v64h64h64v-64v-64h-64v-64h-64z" />
    <glyph glyph-name="hyphen" unicode="-" horiz-adv-x="320" 
d="M192 256h-64h-64h-64v64v64h64h64h64h64v-64v-64h-64z" />
    <glyph glyph-name="period" unicode="." horiz-adv-x="192" 
d="M64 0h-64v64v64h64h64v-64v-64h-64z" />
    <glyph glyph-name="slash" unicode="/" horiz-adv-x="512" 
d="M64 -64h-64v64v64h64v64v64h64v64v64h64v64v64h64v64v64h64v64v64h64h64v-64v-64h-64v-64v-64h-64v-64v-64h-64v-64v-64h-64v-64v-64h-64v-64v-64h-64z" />
    <glyph glyph-name="zero" unicode="0" 
d="M256 0h-64h-64h-64v64h-64v64v64v64v64v64v64v64v64h64v64h64h64h64h64v-64h64v-64v-64v-64v-64v-64v-64v-64v-64h-64v-64h-64zM192 128h64v64v64v64v64v64v64h-64h-64v-64v-64v-64v-64v-64v-64h64z" />
    <glyph glyph-name="one" unicode="1" horiz-adv-x="320" 
d="M192 0h-64h-64h-64v64v64h64v64v64v64v64v64h-64v64v64h64v64h64h64v-64v-64v-64v-64v-64v-64v-64v-64h64v-64v-64h-64z" />
    <glyph glyph-name="two" unicode="2" 
d="M320 0h-64h-64h-64h-64h-64v64v64v64h64v64h64v64h64v64h64v64v64h-64h-64v-64h-64h-64v64v64h64v64h64h64h64h64v-64h64v-64v-64v-64v-64h-64v-64h-64v-64h-64v-64h64h64h64v-64v-64h-64z" />
    <glyph glyph-name="three" unicode="3" 
d="M256 0h-64h-64h-64v64h-64v64v64h64h64v-64h64h64v64v64h-64h-64v64v64h64h64v64v64h-64h-64v-64h-64h-64v64v64h64v64h64h64h64h64v-64h64v-64v-64v-64h-64v-64h64v-64v-64v-64v-64h-64v-64h-64z" />
    <glyph glyph-name="four" unicode="4" 
d="M256 0h-64v64v64h-64h-64h-64h-64v64v64h64v64v64h64v64v64h64v64v64h64h64h64v-64v-64v-64v-64v-64v-64h64v-64v-64h-64v-64v-64h-64zM192 256v64v64h-64v-64v-64h64z" />
    <glyph glyph-name="five" unicode="5" 
d="M256 0h-64h-64h-64v64h-64v64v64h64h64v-64h64h64v64v64h-64h-64h-64h-64v64v64v64v64v64v64h64h64h64h64h64h64v-64v-64h-64h-64h-64h-64v-64v-64h64h64h64v-64h64v-64v-64v-64v-64h-64v-64h-64z" />
    <glyph glyph-name="six" unicode="6" 
d="M256 0h-64h-64h-64v64h-64v64v64v64v64v64v64v64v64h64v64h64h64h64h64v-64h64v-64v-64h-64h-64v64h-64h-64v-64v-64h64h64h64v-64h64v-64v-64v-64v-64h-64v-64h-64zM192 128h64v64v64h-64h-64v-64v-64h64z" />
    <glyph glyph-name="seven" unicode="7" 
d="M128 0h-64v64v64v64h64v64v64h64v64v64h64v64h-64h-64h-64h-64v64v64h64h64h64h64h64h64v-64v-64v-64h-64v-64v-64h-64v-64v-64h-64v-64v-64v-64h-64z" />
    <glyph glyph-name="eight" unicode="8" 
d="M256 0h-64h-64h-64v64h-64v64v64v64v64h64v64h-64v64v64v64h64v64h64h64h64h64v-64h64v-64v-64v-64h-64v-64h64v-64v-64v-64v-64h-64v-64h-64zM192 128h64v64v64h-64h-64v-64v-64h64zM192 384h64v64v64h-64h-64v-64v-64h64z" />
    <glyph glyph-name="nine" unicode="9" 
d="M256 0h-64h-64h-64v64h-64v64v64h64h64v-64h64h64v64v64h-64h-64h-64v64h-64v64v64v64v64h64v64h64h64h64h64v-64h64v-64v-64v-64v-64v-64v-64v-64v-64h-64v-64h-64zM192 384h64v64v64h-64h-64v-64v-64h64z" />
    <glyph glyph-name="colon" unicode=":" horiz-adv-x="192" 
d="M64 128h-64v64v64h64h64v-64v-64h-64zM64 384h-64v64v64h64h64v-64v-64h-64z" />
    <glyph glyph-name="semicolon" unicode=";" horiz-adv-x="192" 
d="M64 64v64h-64v64v64h64h64v-64v-64v-64h-64zM64 384h-64v64v64h64h64v-64v-64h-64z" />
    <glyph glyph-name="less" unicode="&#x3c;" 
d="M320 0h-64v64h-64v64h-64v64h-64v64h-64v64h64v64h64v64h64v64h64v64h64h64v-64v-64h-64v-64h-64v-64h-64v-64h64v-64h64v-64h64v-64v-64h-64z" />
    <glyph glyph-name="equal" unicode="=" 
d="M320 128h-64h-64h-64h-64h-64v64v64h64h64h64h64h64h64v-64v-64h-64zM320 320h-64h-64h-64h-64h-64v64v64h64h64h64h64h64h64v-64v-64h-64z" />
    <glyph glyph-name="greater" unicode="&#x3e;" 
d="M64 0h-64v64v64h64v64h64v64h64v64h-64v64h-64v64h-64v64v64h64h64v-64h64v-64h64v-64h64v-64h64v-64h-64v-64h-64v-64h-64v-64h-64v-64h-64z" />
    <glyph glyph-name="question" unicode="?" 
d="M192 0h-64v64v64h64h64v-64v-64h-64zM192 192h-64v64v64h64v64h64v64v64h-64h-64v-64h-64h-64v64v64h64v64h64h64h64h64v-64h64v-64v-64v-64v-64h-64v-64h-64v-64h-64z" />
    <glyph glyph-name="at" unicode="@" horiz-adv-x="640" 
d="M448 0h-64h-64h-64h-64h-64h-64v64h-64v64v64v64v64v64v64v64v64h64v64h64h64h64h64h64h64h64v-64h64v-64v-64v-64v-64v-64v-64h-64h-64h-64h-64h-64v64h-64v64v64h64v64h64h64v-64v-64v-64h64v64v64v64v64h-64h-64h-64h-64h-64v-64v-64v-64v-64v-64v-64h64h64h64h64h64
h64v-64v-64h-64zM320 256v64v64h-64v-64v-64h64z" />
    <glyph glyph-name="A" unicode="A" 
d="M320 0h-64v64v64v64h-64h-64v-64v-64v-64h-64h-64v64v64v64v64v64v64v64v64v64h64v64h64h64h64h64v-64h64v-64v-64v-64v-64v-64v-64v-64v-64v-64h-64zM192 320h64v64v64v64h-64h-64v-64v-64v-64h64z" />
    <glyph glyph-name="B" unicode="B" 
d="M256 0h-64h-64h-64h-64v64v64v64v64v64v64v64v64v64v64h64h64h64h64h64v-64h64v-64v-64v-64h-64v-64h64v-64v-64v-64v-64h-64v-64h-64zM192 128h64v64v64h-64h-64v-64v-64h64zM192 384h64v64v64h-64h-64v-64v-64h64z" />
    <glyph glyph-name="C" unicode="C" 
d="M256 0h-64h-64h-64v64h-64v64v64v64v64v64v64v64v64h64v64h64h64h64h64v-64h64v-64v-64h-64h-64v64h-64h-64v-64v-64v-64v-64v-64v-64h64h64v64h64h64v-64v-64h-64v-64h-64z" />
    <glyph glyph-name="D" unicode="D" 
d="M256 0h-64h-64h-64h-64v64v64v64v64v64v64v64v64v64v64h64h64h64h64h64v-64h64v-64v-64v-64v-64v-64v-64v-64v-64h-64v-64h-64zM192 128h64v64v64v64v64v64v64h-64h-64v-64v-64v-64v-64v-64v-64h64z" />
    <glyph glyph-name="E" unicode="E" 
d="M320 0h-64h-64h-64h-64h-64v64v64v64v64v64v64v64v64v64v64h64h64h64h64h64h64v-64v-64h-64h-64h-64h-64v-64v-64h64h64h64v-64v-64h-64h-64h-64v-64v-64h64h64h64h64v-64v-64h-64z" />
    <glyph glyph-name="F" unicode="F" 
d="M64 0h-64v64v64v64v64v64v64v64v64v64v64h64h64h64h64h64h64v-64v-64h-64h-64h-64h-64v-64v-64h64h64h64v-64v-64h-64h-64h-64v-64v-64v-64v-64h-64z" />
    <glyph glyph-name="G" unicode="G" 
d="M320 0h-64h-64h-64h-64v64h-64v64v64v64v64v64v64v64v64h64v64h64h64h64h64v-64h64v-64v-64h-64h-64v64h-64h-64v-64v-64v-64v-64v-64v-64h64h64v64v64h-64v64v64h64h64h64v-64v-64v-64v-64v-64v-64h-64z" />
    <glyph glyph-name="H" unicode="H" 
d="M320 0h-64v64v64v64v64h-64h-64v-64v-64v-64v-64h-64h-64v64v64v64v64v64v64v64v64v64v64h64h64v-64v-64v-64v-64h64h64v64v64v64v64h64h64v-64v-64v-64v-64v-64v-64v-64v-64v-64v-64h-64z" />
    <glyph glyph-name="I" unicode="I" horiz-adv-x="192" 
d="M64 0h-64v64v64v64v64v64v64v64v64v64v64h64h64v-64v-64v-64v-64v-64v-64v-64v-64v-64v-64h-64z" />
    <glyph glyph-name="J" unicode="J" 
d="M256 0h-64h-64h-64v64h-64v64v64h64h64v-64h64h64v64v64v64v64v64v64v64v64h64h64v-64v-64v-64v-64v-64v-64v-64v-64v-64h-64v-64h-64z" />
    <glyph glyph-name="K" unicode="K" 
d="M320 0h-64v64v64h-64v64h-64v-64v-64v-64h-64h-64v64v64v64v64v64v64v64v64v64v64h64h64v-64v-64v-64h64v64h64v64v64h64h64v-64v-64h-64v-64v-64h-64v-64v-64h64v-64v-64h64v-64v-64h-64z" />
    <glyph glyph-name="L" unicode="L" 
d="M320 0h-64h-64h-64h-64h-64v64v64v64v64v64v64v64v64v64v64h64h64v-64v-64v-64v-64v-64v-64v-64v-64h64h64h64h64v-64v-64h-64z" />
    <glyph glyph-name="M" unicode="M" horiz-adv-x="512" 
d="M192 128v64v64h-64v-64v-64v-64v-64h-64h-64v64v64v64v64v64v64v64v64v64v64h64h64v-64v-64h64v-64v-64h64v64v64h64v64v64h64h64v-64v-64v-64v-64v-64v-64v-64v-64v-64v-64h-64h-64v64v64v64v64h-64v-64v-64h-64z" />
    <glyph glyph-name="N" unicode="N" 
d="M320 0h-64v64v64h-64v64v64h-64v-64v-64v-64v-64h-64h-64v64v64v64v64v64v64v64v64v64v64h64h64v-64v-64h64v-64v-64h64v64v64v64v64h64h64v-64v-64v-64v-64v-64v-64v-64v-64v-64v-64h-64z" />
    <glyph glyph-name="O" unicode="O" 
d="M256 0h-64h-64h-64v64h-64v64v64v64v64v64v64v64v64h64v64h64h64h64h64v-64h64v-64v-64v-64v-64v-64v-64v-64v-64h-64v-64h-64zM192 128h64v64v64v64v64v64v64h-64h-64v-64v-64v-64v-64v-64v-64h64z" />
    <glyph glyph-name="P" unicode="P" 
d="M64 0h-64v64v64v64v64v64v64v64v64v64v64h64h64h64h64h64v-64h64v-64v-64v-64v-64v-64h-64v-64h-64h-64h-64v-64v-64v-64h-64zM192 320h64v64v64v64h-64h-64v-64v-64v-64h64z" />
    <glyph glyph-name="Q" unicode="Q" 
d="M320 -64h-64h-64v64h-64h-64v64h-64v64v64v64v64v64v64v64v64h64v64h64h64h64h64v-64h64v-64v-64v-64v-64v-64v-64v-64v-64h-64v-64h64v-64h-64zM192 128h64v64v64v64v64v64v64h-64h-64v-64v-64v-64v-64v-64v-64h64z" />
    <glyph glyph-name="R" unicode="R" 
d="M320 0h-64v64v64h-64v64h-64v-64v-64v-64h-64h-64v64v64v64v64v64v64v64v64v64v64h64h64h64h64h64v-64h64v-64v-64v-64v-64v-64h-64v-64v-64h64v-64v-64h-64zM192 320h64v64v64v64h-64h-64v-64v-64v-64h64z" />
    <glyph glyph-name="S" unicode="S" 
d="M256 0h-64h-64h-64v64h-64v64v64h64h64v-64h64h64v64v64h-64h-64h-64v64h-64v64v64v64v64h64v64h64h64h64h64v-64h64v-64v-64h-64h-64v64h-64h-64v-64v-64h64h64h64v-64h64v-64v-64v-64v-64h-64v-64h-64z" />
    <glyph glyph-name="T" unicode="T" 
d="M192 0h-64v64v64v64v64v64v64v64v64h-64h-64v64v64h64h64h64h64h64h64v-64v-64h-64h-64v-64v-64v-64v-64v-64v-64v-64v-64h-64z" />
    <glyph glyph-name="U" unicode="U" 
d="M256 0h-64h-64h-64v64h-64v64v64v64v64v64v64v64v64v64h64h64v-64v-64v-64v-64v-64v-64v-64v-64h64h64v64v64v64v64v64v64v64v64h64h64v-64v-64v-64v-64v-64v-64v-64v-64v-64h-64v-64h-64z" />
    <glyph glyph-name="V" unicode="V" horiz-adv-x="512" 
d="M256 0h-64h-64v64v64v64h-64v64v64v64h-64v64v64v64v64h64h64v-64v-64v-64v-64h64v-64v-64h64v64v64h64v64v64v64v64h64h64v-64v-64v-64v-64h-64v-64v-64v-64h-64v-64v-64v-64h-64z" />
    <glyph glyph-name="W" unicode="W" horiz-adv-x="512" 
d="M384 0h-64v64h-64v64h-64v-64h-64v-64h-64h-64v64v64v64v64v64v64v64v64v64v64h64h64v-64v-64v-64v-64v-64v-64h64v64h64v-64h64v64v64v64v64v64v64h64h64v-64v-64v-64v-64v-64v-64v-64v-64v-64v-64h-64z" />
    <glyph glyph-name="X" unicode="X" horiz-adv-x="512" 
d="M384 0h-64v64v64h-64v64h-64v-64h-64v-64v-64h-64h-64v64v64h64v64v64h64v64v64h-64v64v64h-64v64v64h64h64v-64v-64h64v-64h64v64h64v64v64h64h64v-64v-64h-64v-64v-64h-64v-64v-64h64v-64v-64h64v-64v-64h-64z" />
    <glyph glyph-name="Y" unicode="Y" 
d="M192 0h-64v64v64v64v64h-64v64v64h-64v64v64v64v64h64h64v-64v-64v-64v-64h64h64v64v64v64v64h64h64v-64v-64v-64v-64h-64v-64v-64h-64v-64v-64v-64v-64h-64z" />
    <glyph glyph-name="Z" unicode="Z" 
d="M320 0h-64h-64h-64h-64h-64v64v64h64v64v64h64v64v64h64v64v64h-64h-64h-64v64v64h64h64h64h64h64h64v-64v-64h-64v-64v-64h-64v-64v-64h-64v-64v-64h64h64h64v-64v-64h-64z" />
    <glyph glyph-name="bracketleft" unicode="[" horiz-adv-x="320" 
d="M192 -64h-64h-64h-64v64v64v64v64v64v64v64v64v64v64v64v64h64h64h64h64v-64v-64h-64h-64v-64v-64v-64v-64v-64v-64v-64v-64h64h64v-64v-64h-64z" />
    <glyph glyph-name="backslash" unicode="\" horiz-adv-x="512" 
d="M384 -64h-64v64v64h-64v64v64h-64v64v64h-64v64v64h-64v64v64h-64v64v64h64h64v-64v-64h64v-64v-64h64v-64v-64h64v-64v-64h64v-64v-64h64v-64v-64h-64z" />
    <glyph glyph-name="bracketright" unicode="]" horiz-adv-x="320" 
d="M192 -64h-64h-64h-64v64v64h64h64v64v64v64v64v64v64v64v64h-64h-64v64v64h64h64h64h64v-64v-64v-64v-64v-64v-64v-64v-64v-64v-64v-64v-64h-64z" />
    <glyph glyph-name="asciicircum" unicode="^" horiz-adv-x="512" 
d="M384 320h-64v64h-64v64h-64v-64h-64v-64h-64h-64v64v64h64v64h64v64h64v64h64v-64h64v-64h64v-64h64v-64v-64h-64z" />
    <glyph glyph-name="underscore" unicode="_" 
d="M320 0h-64h-64h-64h-64h-64v64v64h64h64h64h64h64h64v-64v-64h-64z" />
    <glyph glyph-name="grave" unicode="`" horiz-adv-x="256" 
d="M128 448h-64v64h-64v64v64h64h64v-64h64v-64v-64h-64z" />
    <glyph glyph-name="a" unicode="a" 
d="M320 0h-64h-64h-64h-64v64h-64v64v64v64h64v64h64h64h64v64h-64h-64h-64v64v64h64h64h64h64v-64h64v-64v-64v-64v-64v-64v-64v-64h-64zM192 128h64v64h-64h-64v-64h64z" />
    <glyph glyph-name="b" unicode="b" 
d="M256 0h-64h-64h-64h-64v64v64v64v64v64v64v64v64v64v64v64h64h64v-64v-64v-64h64h64h64v-64h64v-64v-64v-64v-64v-64v-64h-64v-64h-64zM192 128h64v64v64v64v64h-64h-64v-64v-64v-64v-64h64z" />
    <glyph glyph-name="c" unicode="c" 
d="M256 0h-64h-64h-64v64h-64v64v64v64v64v64v64h64v64h64h64h64h64v-64h64v-64v-64h-64h-64v64h-64h-64v-64v-64v-64v-64h64h64v64h64h64v-64v-64h-64v-64h-64z" />
    <glyph glyph-name="d" unicode="d" 
d="M320 0h-64h-64h-64h-64v64h-64v64v64v64v64v64v64h64v64h64h64h64v64v64v64h64h64v-64v-64v-64v-64v-64v-64v-64v-64v-64v-64v-64h-64zM192 128h64v64v64v64v64h-64h-64v-64v-64v-64v-64h64z" />
    <glyph glyph-name="e" unicode="e" 
d="M256 0h-64h-64h-64v64h-64v64v64v64v64v64v64h64v64h64h64h64h64v-64h64v-64v-64v-64v-64h-64h-64h-64h-64v-64h64h64h64v-64v-64h-64zM192 320h64v64h-64h-64v-64h64z" />
    <glyph glyph-name="f" unicode="f" horiz-adv-x="384" 
d="M128 0h-64v64v64v64v64v64v64h-64v64v64h64v64v64h64v64h64h64h64v-64v-64h-64h-64v-64h64h64v-64v-64h-64h-64v-64v-64v-64v-64v-64v-64h-64z" />
    <glyph glyph-name="g" unicode="g" 
d="M256 -192h-64h-64h-64v64v64h64h64h64v64h-64h-64h-64v64h-64v64v64v64v64v64v64h64v64h64h64h64h64h64v-64v-64v-64v-64v-64v-64v-64v-64v-64v-64h-64v-64h-64zM192 128h64v64v64v64v64h-64h-64v-64v-64v-64v-64h64z" />
    <glyph glyph-name="h" unicode="h" 
d="M320 0h-64v64v64v64v64v64v64h-64h-64v-64v-64v-64v-64v-64v-64h-64h-64v64v64v64v64v64v64v64v64v64v64v64h64h64v-64v-64v-64h64h64h64v-64h64v-64v-64v-64v-64v-64v-64v-64h-64z" />
    <glyph glyph-name="i" unicode="i" horiz-adv-x="192" 
d="M64 0h-64v64v64v64v64v64v64v64v64h64h64v-64v-64v-64v-64v-64v-64v-64v-64h-64zM64 576h-64v64v64h64h64v-64v-64h-64z" />
    <glyph glyph-name="j" unicode="j" horiz-adv-x="192" 
d="M0 -192h-64h-64v64v64h64h64v64v64v64v64v64v64v64v64v64h64h64v-64v-64v-64v-64v-64v-64v-64v-64v-64v-64h-64v-64h-64zM64 576h-64v64v64h64h64v-64v-64h-64z" />
    <glyph glyph-name="k" unicode="k" 
d="M320 0h-64v64h-64v64h-64v-64v-64h-64h-64v64v64v64v64v64v64v64v64v64v64v64h64h64v-64v-64v-64v-64v-64h64v64h64v64h64h64v-64v-64h-64v-64h-64v-64v-64h64v-64h64v-64v-64h-64z" />
    <glyph glyph-name="l" unicode="l" horiz-adv-x="192" 
d="M64 0h-64v64v64v64v64v64v64v64v64v64v64v64h64h64v-64v-64v-64v-64v-64v-64v-64v-64v-64v-64v-64h-64z" />
    <glyph glyph-name="m" unicode="m" horiz-adv-x="576" 
d="M448 0h-64v64v64v64v64v64v64h-64v-64v-64v-64v-64v-64v-64h-64h-64v64v64v64v64v64v64h-64v-64v-64v-64v-64v-64v-64h-64h-64v64v64v64v64v64v64v64v64h64h64h64h64h64h64h64v-64h64v-64v-64v-64v-64v-64v-64v-64h-64z" />
    <glyph glyph-name="n" unicode="n" 
d="M320 0h-64v64v64v64v64v64v64h-64h-64v-64v-64v-64v-64v-64v-64h-64h-64v64v64v64v64v64v64v64v64h64h64h64h64h64v-64h64v-64v-64v-64v-64v-64v-64v-64h-64z" />
    <glyph glyph-name="o" unicode="o" 
d="M256 0h-64h-64h-64v64h-64v64v64v64v64v64v64h64v64h64h64h64h64v-64h64v-64v-64v-64v-64v-64v-64h-64v-64h-64zM192 128h64v64v64v64v64h-64h-64v-64v-64v-64v-64h64z" />
    <glyph glyph-name="p" unicode="p" 
d="M64 -192h-64v64v64v64v64v64v64v64v64v64v64v64h64h64h64h64h64v-64h64v-64v-64v-64v-64v-64v-64h-64v-64h-64h-64h-64v-64v-64v-64h-64zM192 128h64v64v64v64v64h-64h-64v-64v-64v-64v-64h64z" />
    <glyph glyph-name="q" unicode="q" 
d="M320 -192h-64v64v64v64h-64h-64h-64v64h-64v64v64v64v64v64v64h64v64h64h64h64h64h64v-64v-64v-64v-64v-64v-64v-64v-64v-64v-64v-64h-64zM192 128h64v64v64v64v64h-64h-64v-64v-64v-64v-64h64z" />
    <glyph glyph-name="r" unicode="r" 
d="M64 0h-64v64v64v64v64v64v64v64v64h64h64h64h64h64v-64h64v-64v-64h-64h-64v64h-64h-64v-64v-64v-64v-64v-64v-64h-64z" />
    <glyph glyph-name="s" unicode="s" 
d="M256 0h-64h-64h-64h-64v64v64h64h64h64h64v64h-64h-64h-64v64h-64v64v64v64h64v64h64h64h64h64h64v-64v-64h-64h-64h-64h-64v-64h64h64h64v-64h64v-64v-64v-64h-64v-64h-64z" />
    <glyph glyph-name="t" unicode="t" horiz-adv-x="384" 
d="M256 0h-64h-64v64h-64v64v64v64v64v64h-64v64v64h64v64v64h64h64v-64v-64h64h64v-64v-64h-64h-64v-64v-64v-64v-64h64h64v-64v-64h-64z" />
    <glyph glyph-name="u" unicode="u" 
d="M320 0h-64h-64h-64h-64v64h-64v64v64v64v64v64v64v64h64h64v-64v-64v-64v-64v-64v-64h64h64v64v64v64v64v64v64h64h64v-64v-64v-64v-64v-64v-64v-64v-64h-64z" />
    <glyph glyph-name="v" unicode="v" horiz-adv-x="512" 
d="M256 0h-64h-64v64v64h-64v64v64v64h-64v64v64v64h64h64v-64v-64v-64h64v-64v-64h64v64v64h64v64v64v64h64h64v-64v-64v-64h-64v-64v-64v-64h-64v-64v-64h-64z" />
    <glyph glyph-name="w" unicode="w" horiz-adv-x="512" 
d="M384 0h-64v64h-64v64h-64v-64h-64v-64h-64h-64v64v64v64v64v64v64v64v64h64h64v-64v-64v-64v-64h64v64h64v-64h64v64v64v64v64h64h64v-64v-64v-64v-64v-64v-64v-64v-64h-64z" />
    <glyph glyph-name="x" unicode="x" horiz-adv-x="512" 
d="M384 0h-64v64h-64v64h-64v-64h-64v-64h-64h-64v64v64h64v64h64v64v64h-64v64h-64v64v64h64h64v-64h64v-64h64v64h64v64h64h64v-64v-64h-64v-64h-64v-64v-64h64v-64h64v-64v-64h-64z" />
    <glyph glyph-name="y" unicode="y" 
d="M256 -192h-64h-64h-64v64v64h64h64h64v64h-64h-64h-64v64h-64v64v64v64v64v64v64v64h64h64v-64v-64v-64v-64v-64v-64h64h64v64v64v64v64v64v64h64h64v-64v-64v-64v-64v-64v-64v-64v-64v-64v-64h-64v-64h-64z" />
    <glyph glyph-name="z" unicode="z" 
d="M320 0h-64h-64h-64h-64h-64v64v64v64h64v64h64v64h64v64h-64h-64h-64v64v64h64h64h64h64h64h64v-64v-64v-64h-64v-64h-64v-64h-64v-64h64h64h64v-64v-64h-64z" />
    <glyph glyph-name="braceleft" unicode="{" horiz-adv-x="384" 
d="M256 -64h-64v64h-64v64v64v64h-64v64h-64v64v64h64v64h64v64v64v64h64v64h64h64v-64v-64h-64v-64v-64v-64h-64v-64v-64h64v-64v-64v-64h64v-64v-64h-64z" />
    <glyph glyph-name="bar" unicode="|" horiz-adv-x="192" 
d="M64 -64h-64v64v64v64v64v64v64v64v64v64v64v64v64h64h64v-64v-64v-64v-64v-64v-64v-64v-64v-64v-64v-64v-64h-64z" />
    <glyph glyph-name="braceright" unicode="}" horiz-adv-x="384" 
d="M64 -64h-64v64v64h64v64v64v64h64v64v64h-64v64v64v64h-64v64v64h64h64v-64h64v-64v-64v-64h64v-64h64v-64v-64h-64v-64h-64v-64v-64v-64h-64v-64h-64z" />
    <glyph glyph-name="asciitilde" unicode="~" 
d="M0 448v64v64h64v64h64h64v-64h64h64v64h64v-64v-64h-64v-64h-64h-64v64h-64h-64v-64h-64z" />
    <glyph glyph-name="uni00A0" unicode="&#xa0;" horiz-adv-x="320" 
 />
    <glyph glyph-name="exclamdown" unicode="&#xa1;" horiz-adv-x="192" 
d="M64 0h-64v64v64v64v64v64v64v64h64h64v-64v-64v-64v-64v-64v-64v-64h-64zM64 512h-64v64v64h64h64v-64v-64h-64z" />
    <glyph glyph-name="cent" unicode="&#xa2;" 
d="M192 -128h-64v64v64h-64v64h-64v64v64v64v64v64h64v64h64v64v64h64h64v-64v-64h64v-64h64v-64v-64h-64h-64v64h-64h-64v-64v-64v-64h64h64v64h64h64v-64v-64h-64v-64h-64v-64v-64h-64z" />
    <glyph glyph-name="sterling" unicode="&#xa3;" horiz-adv-x="512" 
d="M384 0h-64h-64h-64h-64h-64h-64v64v64h64v64v64h-64v64v64h64v64v64v64h64v64h64h64h64h64h64v-64v-64h-64h-64h-64h-64v-64v-64h64h64h64v-64v-64h-64h-64h-64v-64v-64h64h64h64h64v-64v-64h-64z" />
    <glyph glyph-name="currency" unicode="&#xa4;" horiz-adv-x="512" 
d="M384 64h-64v64h-64h-64h-64v-64h-64h-64v64v64h64v64v64v64h-64v64v64h64h64v-64h64h64h64v64h64h64v-64v-64h-64v-64v-64v-64h64v-64v-64h-64zM256 256v64h-64v-64h64z" />
    <glyph glyph-name="yen" unicode="&#xa5;" horiz-adv-x="960" 
d="M384 -128v64h-64h-64v64h-64h-64h-64h-64h-64v64v64v64v64v64v64v64v64v64v64v64h64h64h64h64h64h64h64v-64h64v64h64h64h64h64h64h64h64v-64v-64v-64v-64v-64v-64v-64v-64v-64v-64v-64h-64h-64h-64h-64h-64v-64h-64h-64v-64h-64zM768 128h64v64v64v64v64v64v64v64v64
h-64h-64h-64h-64h-64v-64h-64v-64v-64v-64v-64v-64v-64v-64v-64h64v64h64h64h64h64zM384 64v64v64v64v64v64v64v64v64h-64v64h-64h-64h-64h-64h-64v-64v-64v-64v-64v-64v-64v-64v-64h64h64h64h64h64v-64h64z" />
    <glyph glyph-name="brokenbar" unicode="&#xa6;" horiz-adv-x="192" 
d="M64 0h-64v64v64v64v64v64h64h64v-64v-64v-64v-64v-64h-64zM64 384h-64v64v64v64v64h64h64v-64v-64v-64v-64h-64z" />
    <glyph glyph-name="section" unicode="&#xa7;" 
d="M256 -64h-64h-64h-64h-64v64v64h64h64h64h64v64h-64h-64h-64v64h-64v64v64v64v64h64v64h-64v64v64h64v64h64h64h64h64h64v-64v-64h-64h-64h-64h-64v-64h64h64h64v-64h64v-64v-64v-64v-64h-64v-64h64v-64v-64h-64v-64h-64zM192 256h64v64v64h-64h-64v-64v-64h64z" />
    <glyph glyph-name="dieresis" unicode="&#xa8;" 
d="M320 512h-64h-64h-64h-64h-64v64v64h64h64h64h64h64h64v-64v-64h-64z" />
    <glyph glyph-name="copyright" unicode="&#xa9;" horiz-adv-x="640" 
d="M448 0h-64h-64h-64h-64h-64h-64v64h-64v64v64v64v64v64v64v64v64h64v64h64h64h64h64h64h64h64v-64h64v-64v-64v-64v-64v-64v-64v-64v-64h-64v-64h-64zM384 128h64v64v64v64v64v64v64h-64h-64h-64h-64h-64v-64v-64v-64v-64v-64v-64h64h64h64h64zM320 256h64v-64h-64h-64
v64h64zM256 256h-64v64v64h64v-64v-64zM320 448h64v-64h-64h-64v64h64z" />
    <glyph glyph-name="Agrave" unicode="&#xc0;" horiz-adv-x="640" 
d="M384 -128v64h-64v64h-64v64h-64v64h-64v64h-64v64h-64v64h64v64h64v64h64v64h64v64h64v64h64v64h64v-64h64v-64h64v-64h-64v-64h-64v-64h-64v-64h-64v-64h64v-64h64v-64h64v-64h64v-64h-64v-64h-64v-64h-64z" />
    <glyph glyph-name="Aacute" unicode="&#xc1;" horiz-adv-x="640" 
d="M128 -128v64h-64v64h-64v64h64v64h64v64h64v64h64v64h-64v64h-64v64h-64v64h-64v64h64v64h64v64h64v-64h64v-64h64v-64h64v-64h64v-64h64v-64h64v-64h-64v-64h-64v-64h-64v-64h-64v-64h-64v-64h-64v-64h-64z" />
    <glyph glyph-name="Acircumflex" unicode="&#xc2;" horiz-adv-x="896" 
d="M768 -128h-64h-64h-64h-64h-64h-64h-64h-64h-64h-64h-64h-64v64v64v64h64h64h64h64h64h64h64h64h64h64h64h64h64v-64v-64v-64h-64zM768 192h-64h-64h-64h-64h-64h-64h-64h-64h-64h-64h-64h-64v64v64v64h64h64h64h64h64h64h64h64h64h64h64h64h64v-64v-64v-64h-64zM768 512
h-64h-64h-64h-64h-64h-64h-64h-64h-64h-64h-64h-64v64v64v64h64h64h64h64h64h64h64h64h64h64h64h64h64v-64v-64v-64h-64z" />
    <glyph glyph-name="Atilde" unicode="&#xc3;" horiz-adv-x="960" 
d="M832 -192h-64h-64v64h-64h-64h-64h-64v64v64v64v64v64v64h64h64h64h64h64h64h64v-64v-64v-64v-64v-64v-64v-64h-64zM320 -64h-64h-64v64h-64h-64h-64v64v64v64v64h64h64h64h64h64h64v-64v-64v-64v-64v-64h-64zM832 320h-64h-64h-64h-64h-64h-64v64v64v64v64v64v64h64h64
h64h64v64h64h64h64v-64v-64v-64v-64v-64v-64v-64h-64zM320 320h-64h-64h-64h-64h-64v64v64v64v64h64h64h64v64h64h64h64v-64v-64v-64v-64v-64h-64z" />
    <glyph glyph-name="Adieresis" unicode="&#xc4;" horiz-adv-x="896" 
d="M384 192v64h-64v64h-64v64h-64v64h-64v64h64h64v64v64v64v64h64h64h64h64h64v-64v-64v-64v-64h64h64v-64h-64v-64h-64v-64h-64v-64h-64v-64h-64zM768 0h-64h-64h-64h-64h-64h-64h-64h-64h-64h-64h-64h-64v64v64v64h64h64v-64h64h64h64h64h64h64h64h64h64v64h64h64v-64
v-64v-64h-64z" />
    <glyph glyph-name="Euro" unicode="&#x20ac;" horiz-adv-x="512" 
d="M384 0h-64h-64h-64h-64v64h-64v64v64h-64v64h64v64h-64v64h64v64v64h64v64h64h64h64h64h64v-64v-64h-64h-64h-64h-64v-64h64h64v-64h-64h-64v-64h64h64v-64h-64h-64v-64h64h64h64h64v-64v-64h-64z" />
    <glyph glyph-name="uni3000" unicode="&#x3000;" horiz-adv-x="1024" 
 />
  </font>
</defs>
</svg>
